# xmcd
#
# Track frame offsets:
#	150
#	16267
#	29614
#	46404
#	62658
#	80120
#	97293
#	114837
#	131960
#	147554
#	165761
#	181122
#	197244
#	215029
#	229793
#	248273
#	267869
#	280824
#	295814
#
# Disc length: 4150 seconds
# Revision: 0
# Processed by: cddbd v1.5.2PL0 Copyright (c) Steve Scherf et al.
# Submitted via: dBpowerAMP V12.0
#
DISCID=17103413
DTITLE=Various Artist - Country Heat 2018
DYEAR=2017
DGENRE=Country
TTITLE0=Kenny Chesney - All The Pretty Girls
TTITLE1=Old Dominion - No Such Thing As A Broken Heart
TTITLE2=Aaron Goodvin - Lonely Drum
TTITLE3=Blake Shelton - Every Time I Hear That Song
TTITLE4=Brad Paisley - Last Time For Everything
TTITLE5=Zac Brown Band - My Old Man
TTITLE6=Faith Hill and Tim McGraw - Speak To A Girl
TTITLE7=Cole Swindell - Middle Of A Memory
TTITLE8=Paul Brandt - The Journey
TTITLE9=Luke Combs - When It Rains It Pours
TTITLE10=Gord Bamford - Livin' On Summertime
TTITLE11=High Valley - I Be U Be
TTITLE12=Meghan Patrick - Be Country With Me
TTITLE13=Maren Morris - I Could Use A Love Song
TTITLE14=Chris Janson - Holdin' Her
TTITLE15=Miranda Lambert - Tin Man
TTITLE16=Dallas Smith - Sky Stays This Blue
TTITLE17=Cold Creek County - Homemade
TTITLE18=The Washboard Union - Shine
EXTD=
EXTT0=
EXTT1=
EXTT2=
EXTT3=
EXTT4=
EXTT5=
EXTT6=
EXTT7=
EXTT8=
EXTT9=
EXTT10=
EXTT11=
EXTT12=
EXTT13=
EXTT14=
EXTT15=
EXTT16=
EXTT17=
EXTT18=
PLAYORDER=
